<?xml version="1.0" encoding="UTF-8"?><!DOCTYPE svg PUBLIC "-//W3C//DTD SVG 1.1//EN" "http://www.w3.org/Graphics/SVG/1.1/DTD/svg11.dtd"><svg xmlns="http://www.w3.org/2000/svg" display="none" xmlns:xlink="http://www.w3.org/1999/xlink"><symbol id="facebook" viewBox="0 0 96 96"><title>facebook</title><path d="M57 18h15V0H57a21 21 0 0 0-21 21v9H24v18h12v48h18V48h15l3-18H54v-9a3 3 0 0 1 3-3z"/></symbol><symbol id="hatebu" viewBox="0 0 96 96"><title>hatebu</title><circle cx="85.31" cy="77.54" r="10.69"/><path d="M75.58 7.73h19.46v53.15H75.58zM46 43.49s13.45-.85 13.45-17C59.43 7.87 42.59 7.78 33 7.78H0v80.49h32.7c26.57 0 31.1-14.53 31.1-23.86S59.27 46.32 46 43.49zM20.51 22.94h9c1.7 0 9 .72 9 7.72 0 8.27-6.36 8-10.6 8h-7.4zm10.6 48.22h-10.6V53.48h10.81c6.15 0 10.81 1.27 10.81 8.83s-6.08 8.84-11.02 8.84z"/></symbol><symbol id="logo" viewBox="0 0 96 96"><title>logo</title><path d="M34.91 22.71l1-3c6.86-5.57 17.3-3 17.3-3L32.16 85.64h10.72a41.75 41.75 0 0 0 20.92-5.08A36.34 36.34 0 0 0 78 65.89a44.09 44.09 0 0 0 5.24-21.29q0-15.27-8.9-24.6T51 10.64a47.79 47.79 0 0 0-22.9 5.76 46 46 0 0 0-17 15.27q-6.27 9.5-6.27 18.5a13.66 13.66 0 0 0 7.63 12.9 9.46 9.46 0 0 1 2.85 2.12 3.64 3.64 0 0 1 .65 2.2 4.35 4.35 0 0 1-4.2 4.19q-3.65 0-7.1-4.81A23.86 23.86 0 0 1 0 53a41.83 41.83 0 0 1 7-22.83 50 50 0 0 1 19.62-17.54 59.71 59.71 0 0 1 28-6.51q18.94 0 30.16 10.18A32.81 32.81 0 0 1 96 41.73a46.61 46.61 0 0 1-7.82 26.12q-7.81 11.91-18.89 17a53 53 0 0 1-22.11 5.09H20l19.07-62.21a12 12 0 0 0 .41-2.81 2.3 2.3 0 0 0-.69-1.76 2.67 2.67 0 0 0-1.92-.65c-.35 0-1.96.2-1.96.2z"/></symbol><symbol id="pocket" viewBox="0 0 96 96"><title>Pocket</title><path d="M95.53 12.87a8.74 8.74 0 0 0-8.18-5.73H8.71a8.76 8.76 0 0 0-8.14 5.61A8.66 8.66 0 0 0 0 15.84v29l.33 5.76A46.82 46.82 0 0 0 19 83.1l.57.43.12.08a47.53 47.53 0 0 0 18.77 8.29 48.19 48.19 0 0 0 18.38.14l1-.21a1.28 1.28 0 0 0 .31-.11 47.53 47.53 0 0 0 18-8.12l.12-.08.73-.42a46.82 46.82 0 0 0 18.67-32.53l.33-5.76v-29a8.64 8.64 0 0 0-.47-2.94zM75.2 43L52.62 64.7a6.58 6.58 0 0 1-9.11 0L20.92 43A6.58 6.58 0 1 1 30 33.54l18 17.29 18-17.29A6.58 6.58 0 1 1 75.2 43z"/></symbol><symbol id="twitter" viewBox="0 0 96 96"><title>twitter</title><path d="M30.19 87c36.23 0 56-30 56-56 0-.85 0-1.7-.06-2.55A40.07 40.07 0 0 0 96 18.22a39.31 39.31 0 0 1-11.31 3.1 19.76 19.76 0 0 0 8.66-10.89 39.47 39.47 0 0 1-12.51 4.78 19.71 19.71 0 0 0-33.57 18A55.92 55.92 0 0 1 6.68 12.59a19.71 19.71 0 0 0 6.1 26.29 19.55 19.55 0 0 1-8.94-2.47v.25A19.7 19.7 0 0 0 19.64 56a19.66 19.66 0 0 1-8.89.34A19.72 19.72 0 0 0 29.15 70a39.52 39.52 0 0 1-24.46 8.44A40.09 40.09 0 0 1 0 78.16 55.76 55.76 0 0 0 30.19 87"/></symbol><use xlink:href="#facebook" width="96" height="96" x="0" y="0"/><use xlink:href="#hatebu" width="96" height="96" x="0" y="96"/><use xlink:href="#logo" width="96" height="96" x="0" y="192"/><use xlink:href="#pocket" width="96" height="96" x="0" y="288"/><use xlink:href="#twitter" width="96" height="96" x="0" y="384"/><view id="facebook_css" viewBox="0 0 96 96"/><view id="hatebu_css" viewBox="0 96 96 96"/><view id="logo_css" viewBox="0 192 96 96"/><view id="pocket_css" viewBox="0 288 96 96"/><view id="twitter_css" viewBox="0 384 96 96"/></svg>