<svg id="Layer_1" data-name="Layer 1" xmlns="http://www.w3.org/2000/svg" viewBox="0 0 96 96"><title>logo</title><path d="M34.91,22.71l1-3c6.86-5.57,17.3-3,17.3-3L32.16,85.64H42.88A41.75,41.75,0,0,0,63.8,80.56,36.34,36.34,0,0,0,78,65.89a44.09,44.09,0,0,0,5.24-21.29q0-15.27-8.9-24.6T51,10.64a47.79,47.79,0,0,0-22.9,5.76,46,46,0,0,0-17,15.27q-6.27,9.5-6.27,18.5a13.66,13.66,0,0,0,7.63,12.9,9.46,9.46,0,0,1,2.85,2.12,3.64,3.64,0,0,1,.65,2.2,4.35,4.35,0,0,1-4.2,4.19q-3.65,0-7.1-4.81A23.86,23.86,0,0,1,0,53,41.83,41.83,0,0,1,7,30.17,50,50,0,0,1,26.62,12.63a59.71,59.71,0,0,1,28-6.51q18.94,0,30.16,10.18A32.81,32.81,0,0,1,96,41.73a46.61,46.61,0,0,1-7.82,26.12q-7.81,11.91-18.89,17a53,53,0,0,1-22.11,5.09H20L39.07,27.73a12,12,0,0,0,.41-2.81,2.3,2.3,0,0,0-.69-1.76,2.67,2.67,0,0,0-1.92-.65C36.52,22.51,34.91,22.71,34.91,22.71Z"/></svg>