<svg id="Layer_1" data-name="Layer 1" xmlns="http://www.w3.org/2000/svg" viewBox="0 0 96 96"><title>Pocket</title><path d="M95.53,12.87a8.74,8.74,0,0,0-8.18-5.73H8.71A8.76,8.76,0,0,0,.57,12.75,8.66,8.66,0,0,0,0,15.84v29l.33,5.76A46.82,46.82,0,0,0,19,83.1l.57.43.12.08a47.53,47.53,0,0,0,18.77,8.29,48.19,48.19,0,0,0,18.38.14l1-.21a1.28,1.28,0,0,0,.31-.11,47.53,47.53,0,0,0,18-8.12l.12-.08L77,83.1A46.82,46.82,0,0,0,95.67,50.57L96,44.81v-29A8.64,8.64,0,0,0,95.53,12.87ZM75.2,43,52.62,64.7a6.58,6.58,0,0,1-9.11,0L20.92,43A6.58,6.58,0,1,1,30,33.54l18,17.29,18-17.29A6.58,6.58,0,1,1,75.2,43Z"/></svg>