<svg id="Layer_1" data-name="Layer 1" xmlns="http://www.w3.org/2000/svg" viewBox="0 0 96 96"><title>twitter</title><path d="M30.19,87c36.23,0,56-30,56-56,0-.85,0-1.7-.06-2.55A40.07,40.07,0,0,0,96,18.22a39.31,39.31,0,0,1-11.31,3.1,19.76,19.76,0,0,0,8.66-10.89,39.47,39.47,0,0,1-12.51,4.78,19.71,19.71,0,0,0-33.57,18A55.92,55.92,0,0,1,6.68,12.59a19.71,19.71,0,0,0,6.1,26.29,19.55,19.55,0,0,1-8.94-2.47v.25A19.7,19.7,0,0,0,19.64,56a19.66,19.66,0,0,1-8.89.34A19.72,19.72,0,0,0,29.15,70,39.52,39.52,0,0,1,4.69,78.44,40.09,40.09,0,0,1,0,78.16,55.76,55.76,0,0,0,30.19,87"/></svg>