<svg id="レイヤー_1" data-name="レイヤー 1" xmlns="http://www.w3.org/2000/svg" viewBox="0 0 50 36"><defs><style>.cls-1{fill:#f0edf0;}</style></defs><title>blockquote_r</title><path class="cls-1" d="M.94,31.38A16.11,16.11,0,0,0,5,29.52a21.77,21.77,0,0,0,4.14-3.24,18.14,18.14,0,0,0,3.06-4,7.14,7.14,0,0,0,1-4.32,1.37,1.37,0,0,0-1.32-1,18.74,18.74,0,0,0-2-.12,7.59,7.59,0,0,1-5.22-2A7.08,7.08,0,0,1,2.38,9.3a8.29,8.29,0,0,1,2.46-6A7.61,7.61,0,0,1,10.42.78a8.32,8.32,0,0,1,7.26,3.48,14.39,14.39,0,0,1,2.46,8.52,18.63,18.63,0,0,1-1.62,7.62,25.87,25.87,0,0,1-4.26,6.66,27.22,27.22,0,0,1-6.12,5.16,23.36,23.36,0,0,1-7.2,3Zm28.92,0a16.11,16.11,0,0,0,4.08-1.86,21.77,21.77,0,0,0,4.14-3.24,18.17,18.17,0,0,0,3.06-4,7.15,7.15,0,0,0,1-4.32,1.37,1.37,0,0,0-1.32-1,18.74,18.74,0,0,0-2-.12,7.59,7.59,0,0,1-5.22-2A7.08,7.08,0,0,1,31.3,9.3a8.29,8.29,0,0,1,2.46-6A7.61,7.61,0,0,1,39.34.78,8.32,8.32,0,0,1,46.6,4.26a14.4,14.4,0,0,1,2.46,8.52,18.63,18.63,0,0,1-1.62,7.62,25.87,25.87,0,0,1-4.26,6.66,27.22,27.22,0,0,1-6.12,5.16,23.36,23.36,0,0,1-7.2,3Z"/></svg>