<svg id="レイヤー_1" data-name="レイヤー 1" xmlns="http://www.w3.org/2000/svg" viewBox="0 0 50 36"><defs><style>.cls-1{fill:#f0edf0;}</style></defs><title>blockquote_l</title><path class="cls-1" d="M20.15,3.83a15.3,15.3,0,0,0-4,1.86A24.51,24.51,0,0,0,12,8.92a17.23,17.23,0,0,0-3.11,4,7.1,7.1,0,0,0-1,4.31,1.36,1.36,0,0,0,1.32,1,18.3,18.3,0,0,0,2,.12,7.58,7.58,0,0,1,5.21,2,7.07,7.07,0,0,1,2.21,5.57,8.28,8.28,0,0,1-2.45,6,7.59,7.59,0,0,1-5.57,2.51,8.29,8.29,0,0,1-7.24-3.47A14.34,14.34,0,0,1,1,22.38a18.59,18.59,0,0,1,1.62-7.6A25.82,25.82,0,0,1,6.87,8.14,27.1,27.1,0,0,1,13,3a23.31,23.31,0,0,1,7.18-3ZM49,3.83a15.3,15.3,0,0,0-4,1.86,24.53,24.53,0,0,0-4.13,3.23,17.22,17.22,0,0,0-3.11,4,7.1,7.1,0,0,0-1,4.31,1.36,1.36,0,0,0,1.32,1,18.31,18.31,0,0,0,2,.12,7.58,7.58,0,0,1,5.21,2,7.07,7.07,0,0,1,2.21,5.57,8.28,8.28,0,0,1-2.45,6,7.59,7.59,0,0,1-5.57,2.51,8.29,8.29,0,0,1-7.24-3.47,14.34,14.34,0,0,1-2.45-8.5,18.59,18.59,0,0,1,1.62-7.6,25.82,25.82,0,0,1,4.25-6.64A27.13,27.13,0,0,1,41.82,3,23.31,23.31,0,0,1,49,0Z"/></svg>