<svg id="レイヤー_1" data-name="レイヤー 1" xmlns="http://www.w3.org/2000/svg" viewBox="0 0 96 96"><defs><style>.cls-1{fill:#d92e86;}</style></defs><title>アートボード 1</title><path d="M13.84,88.25a3.35,3.35,0,0,1-2.48.91H8V79.34h3.36a3.2,3.2,0,0,1,2.36.79,3.08,3.08,0,0,1,.94,1.64,14.85,14.85,0,0,1,.14,2.36v.52a10.88,10.88,0,0,1-.17,2.11A2.84,2.84,0,0,1,13.84,88.25ZM13.11,81a2.14,2.14,0,0,0-.85-.54,3.2,3.2,0,0,0-1.08-.17H9v7.94h2.13a3.32,3.32,0,0,0,1.08-.16,2.22,2.22,0,0,0,.87-.59,2.12,2.12,0,0,0,.52-1.21,16.91,16.91,0,0,0,.1-2.12v-.46a7.38,7.38,0,0,0-.15-1.81A2.08,2.08,0,0,0,13.11,81Z"/><path d="M17.65,86a2.58,2.58,0,0,0,.52,1.72,1.83,1.83,0,0,0,1.48.61,2.4,2.4,0,0,0,1-.17,2.83,2.83,0,0,0,.81-.59l.67.59A3.79,3.79,0,0,1,21,89a3.32,3.32,0,0,1-1.38.25,2.8,2.8,0,0,1-2.17-.86,3.76,3.76,0,0,1-.78-2.61,4,4,0,0,1,.74-2.55,2.48,2.48,0,0,1,2-.92,2.53,2.53,0,0,1,2,.87,3.62,3.62,0,0,1,.74,2.4V86ZM21,84.15a1.58,1.58,0,0,0-.62-.74,1.74,1.74,0,0,0-1-.28,1.71,1.71,0,0,0-1,.28,1.48,1.48,0,0,0-.58.64,3,3,0,0,0-.21.63,3.4,3.4,0,0,0,0,.61h3.58a3.86,3.86,0,0,0,0-.61A2.77,2.77,0,0,0,21,84.15Z"/><path d="M26.48,89.22A4.92,4.92,0,0,1,24.92,89a3.27,3.27,0,0,1-1.22-.74l.66-.66a2.26,2.26,0,0,0,.91.59,3.6,3.6,0,0,0,1.2.18,2.51,2.51,0,0,0,1.33-.29,1,1,0,0,0,.47-.9q0-.89-1.13-1L26,86.1a2.14,2.14,0,0,1-1.5-.48,1.93,1.93,0,0,1,.16-2.8,2.87,2.87,0,0,1,1.8-.53,3.75,3.75,0,0,1,2.44.73l-.65.65a2.88,2.88,0,0,0-1.8-.54,1.85,1.85,0,0,0-1.13.29,1,1,0,0,0-.39.83,1,1,0,0,0,.28.73,1.29,1.29,0,0,0,.91.26l1.09.1a2.66,2.66,0,0,1,1.48.5,1.6,1.6,0,0,1,.52,1.32,1.77,1.77,0,0,1-.74,1.52A3.33,3.33,0,0,1,26.48,89.22Z"/><path d="M31,80.43V79.31h1.11v1.11ZM31,89.16v-6.8h1v6.8Z"/><path d="M36.56,92.25a3.33,3.33,0,0,1-1.25-.2,3.75,3.75,0,0,1-1.05-.71l.65-.63a3.12,3.12,0,0,0,.74.51,2.17,2.17,0,0,0,.88.15,1.69,1.69,0,0,0,1.4-.57,2.3,2.3,0,0,0,.46-1.49V88.26a2.13,2.13,0,0,1-.85.68,2.76,2.76,0,0,1-1.05.19,2.51,2.51,0,0,1-.92-.17,2.37,2.37,0,0,1-.81-.54,2.26,2.26,0,0,1-.56-1.09A6.77,6.77,0,0,1,34,85.7,6.87,6.87,0,0,1,34.2,84,2.23,2.23,0,0,1,34.74,83a2.26,2.26,0,0,1,.82-.54,2.92,2.92,0,0,1,2,0,2.16,2.16,0,0,1,.84.69v-.8h1v7a3,3,0,0,1-.76,2.09A2.69,2.69,0,0,1,36.56,92.25Zm.15-9.08a1.36,1.36,0,0,0-1.34.7A4.11,4.11,0,0,0,35,85.71a4.18,4.18,0,0,0,.34,1.85,1.66,1.66,0,0,0,2.69,0,5.28,5.28,0,0,0,0-3.71A1.35,1.35,0,0,0,36.71,83.17Z"/><path d="M46,89.16V85a1.88,1.88,0,0,0-.44-1.35,1.61,1.61,0,0,0-1.22-.46,1.64,1.64,0,0,0-1.23.46A1.86,1.86,0,0,0,42.67,85v4.18h-1V82.37h1v.74a2.64,2.64,0,0,1,3.67-.16A2.51,2.51,0,0,1,47,84.81v4.34Z"/><path d="M49.2,80.43V79.31h1.11v1.11Zm.06,8.73v-6.8h1v6.8Z"/><path d="M54.79,92.25a3.33,3.33,0,0,1-1.25-.2,3.75,3.75,0,0,1-1.05-.71l.65-.63a3.12,3.12,0,0,0,.74.51,2.17,2.17,0,0,0,.88.15,1.69,1.69,0,0,0,1.4-.57,2.3,2.3,0,0,0,.46-1.49V88.26a2.13,2.13,0,0,1-.85.68,2.76,2.76,0,0,1-1.05.19A2.51,2.51,0,0,1,53.8,89a2.37,2.37,0,0,1-.81-.54,2.26,2.26,0,0,1-.56-1.09,6.77,6.77,0,0,1-.18-1.63A6.87,6.87,0,0,1,52.43,84,2.23,2.23,0,0,1,53,83a2.26,2.26,0,0,1,.82-.54,2.92,2.92,0,0,1,2,0,2.16,2.16,0,0,1,.84.69v-.8h1v7a3,3,0,0,1-.76,2.09A2.69,2.69,0,0,1,54.79,92.25Zm.15-9.08a1.36,1.36,0,0,0-1.34.7,4.11,4.11,0,0,0-.35,1.84,4.18,4.18,0,0,0,.34,1.85,1.66,1.66,0,0,0,2.69,0,5.28,5.28,0,0,0,0-3.71A1.35,1.35,0,0,0,54.95,83.17Z"/><path class="cls-1" d="M66.66,85.11h-2.6v4H63V79.34h3.65a3.08,3.08,0,0,1,2.2.78,3.06,3.06,0,0,1,0,4.2A3,3,0,0,1,66.66,85.11Zm-.1-4.83H64.06v3.89h2.51a2.21,2.21,0,0,0,1.52-.49,1.85,1.85,0,0,0,.56-1.46,1.82,1.82,0,0,0-.56-1.44A2.21,2.21,0,0,0,66.56,80.28Z"/><path class="cls-1" d="M73.2,89.16a1.63,1.63,0,0,1-1.29-.49,1.92,1.92,0,0,1-.43-1.32v-8h1v8a1.17,1.17,0,0,0,.2.75.88.88,0,0,0,.71.24h.54v.85Z"/><path class="cls-1" d="M79.74,89.16V88.4a2.66,2.66,0,0,1-3.68.17,2.53,2.53,0,0,1-.66-1.88V82.37h1v4.17a1.89,1.89,0,0,0,.43,1.34,1.59,1.59,0,0,0,1.22.46,1.65,1.65,0,0,0,1.24-.47,1.84,1.84,0,0,0,.45-1.34V82.37h1v6.79Z"/><path class="cls-1" d="M85.25,89.22A4.92,4.92,0,0,1,83.69,89a3.27,3.27,0,0,1-1.22-.74l.66-.66a2.26,2.26,0,0,0,.91.59,3.6,3.6,0,0,0,1.2.18,2.51,2.51,0,0,0,1.33-.29,1,1,0,0,0,.47-.9q0-.89-1.13-1l-1.12-.1a2.14,2.14,0,0,1-1.5-.48,1.93,1.93,0,0,1,.16-2.8,2.87,2.87,0,0,1,1.8-.53A3.75,3.75,0,0,1,87.7,83l-.65.65a2.88,2.88,0,0,0-1.8-.54,1.85,1.85,0,0,0-1.13.29,1,1,0,0,0-.39.83A1,1,0,0,0,84,85a1.29,1.29,0,0,0,.91.26l1.09.1a2.66,2.66,0,0,1,1.48.5A1.6,1.6,0,0,1,88,87.17a1.77,1.77,0,0,1-.74,1.52A3.33,3.33,0,0,1,85.25,89.22Z"/><path d="M37.73,16.8l.8-2.32c5.39-4.38,13.6-2.38,13.6-2.38L35.57,66.27H44a32.82,32.82,0,0,0,16.44-4A28.57,28.57,0,0,0,71.61,50.74,34.66,34.66,0,0,0,75.73,34q0-12-7-19.34T50.4,7.31a37.57,37.57,0,0,0-18,4.53A36.13,36.13,0,0,0,19,23.84q-4.93,7.47-4.93,14.54a10.74,10.74,0,0,0,6,10.14,7.44,7.44,0,0,1,2.24,1.67,2.86,2.86,0,0,1,.51,1.73,3.42,3.42,0,0,1-3.3,3.29q-2.87,0-5.58-3.78A18.76,18.76,0,0,1,10.29,40.6a32.88,32.88,0,0,1,5.53-17.94A39.32,39.32,0,0,1,31.22,8.87a46.94,46.94,0,0,1,22-5.12q14.89,0,23.71,8a25.79,25.79,0,0,1,8.82,20,36.64,36.64,0,0,1-6.15,20.53q-6.14,9.36-14.85,13.33a41.65,41.65,0,0,1-17.38,4H26L41,20.74a9.41,9.41,0,0,0,.32-2.21,1.81,1.81,0,0,0-.54-1.38,2.1,2.1,0,0,0-1.51-.51C39,16.64,37.73,16.8,37.73,16.8Z"/></svg>